# xmcd
#
# Track frame offsets:
#	150
#	14520
#	29407
#	45627
#	63177
#	78165
#	92744
#	109192
#	123857
#	138815
#	156087
#	168257
#
# Disc length: 2459 seconds
#
# Revision: 0
# Processed by: cddbd v1.5.2PL0 Copyright (c) Steve Scherf et al.
# Submitted via: EasyCDDAExtractor 16.0.8.2
#
DISCID=8c09990c
DTITLE=Μουντάκης Κώστας  - Οι μεγάλες επιτυχίες του Κώστα Μουντάκη
DYEAR=1971
DGENRE=Κρητική
TTITLE0=Αχ αυτός ο αργαλειός σου [καλαματιανός]
TTITLE1=Πάρτε πουλιά τον πόνο μου [συρτός]
TTITLE2=Πήρα δρόμους και σοκάκια(Ο πραματευτής)[καλαματιανός]
TTITLE3=Κρητικόπουλο κι αγάς [μαντινάδα]
TTITLE4=Τσ' ελιές στο μάγουλό σου [συρτός]
TTITLE5=Ρεθυμνιανέ μου καντιφέ [συρτός]
TTITLE6=Μυλωνάδες και μαζώχτρες [καλαματιανός]
TTITLE7=Οι πέντε μερακλήδες
TTITLE8=Πονώ γλυκειά μανούλα μου
TTITLE9=Χανιώτικη ροδαριά [συρτός χανιώτικος]
TTITLE10=Ο Κρητικός τραγουδιστής
TTITLE11=Πέρασα, ξαναπέρασα
EXTD=
EXTT0=
EXTT1=
EXTT2=
EXTT3=
EXTT4=
EXTT5=
EXTT6=
EXTT7=
EXTT8=
EXTT9=
EXTT10=
EXTT11=
PLAYORDER=
